<?xml version="1.0" encoding="UTF-8"?>
<svg id="Layer_1" xmlns="http://www.w3.org/2000/svg" version="1.1" viewBox="0 0 325 200">
  <!-- Generator: Adobe Illustrator 29.7.1, SVG Export Plug-In . SVG Version: 2.1.1 Build 8)  -->
  <defs>
    <style>
      .st0 {
        fill: #fff;
      }

      .st1 {
        fill: #fcdd0b;
      }
    </style>
  </defs>
  <g>
    <path class="st0" d="M29.32,127.43c0-12.02,8.91-20.23,20.05-20.23,7.68,0,12.49,3.69,15.54,8.27l-4.98,2.64c-2.05-3.28-5.92-5.69-10.56-5.69-7.92,0-14.01,6.22-14.01,15.01s6.1,15.01,14.01,15.01c4.63,0,8.5-2.4,10.56-5.69l4.98,2.64c-3.11,4.57-7.86,8.27-15.54,8.27-11.14,0-20.05-8.21-20.05-20.23Z"/>
    <path class="st0" d="M100.98,146.96v-17.47h-21.64v17.47h-5.86v-39.11h5.86v16.42h21.64v-16.42h5.86v39.11h-5.86Z"/>
    <path class="st0" d="M122.51,146.96v-39.11h5.86v39.11h-5.86Z"/>
    <path class="st0" d="M138.16,127.43c0-12.02,8.91-20.23,20.05-20.23,7.68,0,12.49,3.69,15.54,8.27l-4.98,2.64c-2.05-3.28-5.92-5.69-10.56-5.69-7.92,0-14.01,6.22-14.01,15.01s6.1,15.01,14.01,15.01c4.63,0,8.5-2.4,10.56-5.69l4.98,2.64c-3.11,4.57-7.86,8.27-15.54,8.27-11.14,0-20.05-8.21-20.05-20.23Z"/>
    <path class="st0" d="M205.84,146.96l-13.96-17.01-3.69,4.16v12.84h-5.86v-39.11h5.86v19.41l16.36-19.41h7.27l-16.13,18.53,17.42,20.58h-7.27Z"/>
    <path class="st0" d="M220.85,146.96v-39.11h26.27v5.16h-20.41v11.43h20v5.16h-20v12.2h20.41v5.16h-26.27Z"/>
    <path class="st0" d="M284.66,146.96l-21.64-30.02v30.02h-5.86v-39.11h6.04l21.29,29.32v-29.32h5.86v39.11h-5.69Z"/>
  </g>
  <g>
    <path class="st0" d="M66.67,99.45l-7.06-16.42h-5.6v16.42h-15.5v-51.18h27.32c11.97,0,18.42,7.98,18.42,17.57,0,8.82-5.14,13.5-9.21,15.5l9.28,18.11h-17.65ZM63.45,61.17h-9.44v8.98h9.44c2.61,0,5.06-1.69,5.06-4.53s-2.46-4.45-5.06-4.45Z"/>
    <path class="st0" d="M88.08,48.27h15.73v29.62c0,4.91,2.53,8.82,8.9,8.82s8.82-3.91,8.82-8.82v-29.62h15.73v30.08c0,12.74-7.29,22.02-24.55,22.02s-24.63-9.28-24.63-21.94v-30.15Z"/>
    <path class="st0" d="M154.06,99.45v-37.67h-13.73v-13.5h42.89v13.5h-13.66v37.67h-15.5Z"/>
    <path class="st0" d="M220.13,99.45v-19.57h-18.34v19.57h-15.5v-51.18h15.5v18.11h18.34v-18.11h15.5v.45c-2.13,2.66-4.25,5.32-6.38,7.98,2.13,0,4.25-.01,6.38-.02,0,5.7,0,17.1,0,17.1,0,0,0,2.48,0,3.73,0,7.31,0,14.62,0,21.93h-15.5Z"/>
    <path class="st0" d="M255.5,80.73c3.84,3.68,9.59,6.6,16.5,6.6,2.92,0,5.68-1,5.68-2.99s-2.15-2.99-7.21-3.91c-6.52-1.19-15.69-2.65-19.53-9.15-.8-1.36-1.78-4.01-1.8-7.19,0-1.74.28-3.18.55-4.17,2.43-3.06,4.86-6.12,7.3-9.17.81-.48,1.89-1.04,3.21-1.54.42-.16,1.66-.62,3.52-1.02,2.89-.62,5.21-.65,6.65-.67,1.56-.01,3.88.07,6.64.53,3.14.53,5.41,1.32,5.9,1.49,2.54.9,4.36,1.9,5.03,2.27,1.72.97,3.11,1.98,4.17,2.84-2.76,3.66-5.52,7.31-8.29,10.97-4.45-3.38-10.21-5.06-14.27-5.06-3.84,0-4.68,1.38-4.68,2.69,0,1.99,2.07,2.69,7.52,3.61,8.44,1.46,20.95,3.91,20.95,15.73s-8.36,17.8-22.1,17.8c-10.9,0-18.34-3.22-23.79-8.13l8.06-11.51Z"/>
  </g>
  <path class="st1" d="M251.29,32.91c-6.01,7.52-12.02,15.04-18.03,22.56,3.31,0,6.62-.02,9.92-.02-1.92,5.35-3.84,10.71-5.75,16.06,5.96-7.47,11.91-14.95,17.87-22.42-3.28,0-6.55,0-9.83,0,1.94-5.39,3.88-10.78,5.83-16.17Z"/>
</svg>